<?xml version="1.0" standalone="no"?>
<!DOCTYPE svg PUBLIC "-//W3C//DTD SVG 20010904//EN"
 "http://www.w3.org/TR/2001/REC-SVG-20010904/DTD/svg10.dtd">
<svg version="1.0" xmlns="http://www.w3.org/2000/svg"
 width="700.000000pt" height="700.000000pt" viewBox="0 0 700.000000 700.000000"
 preserveAspectRatio="xMidYMid meet">
<metadata>
Created by potrace 1.14, written by Peter Selinger 2001-2017
</metadata>
<g transform="translate(0.000000,700.000000) scale(0.100000,-0.100000)"
fill="#000000" stroke="none">
<path d="M1757 4422 c-593 -592 -1081 -1082 -1085 -1089 -4 -6 -7 -195 -6
-420 l0 -408 1084 -5 1084 -5 0 -498 0 -497 498 0 c274 0 498 3 499 8 1 4 2
415 2 914 1 598 -1 909 -8 911 -5 1 -493 2 -1083 2 l-1073 -1 1083 1083 1083
1083 -500 0 -501 0 -1077 -1078z"/>
<path d="M4338 5493 c-4 -22 -3 -983 1 -983 3 0 226 220 495 489 269 270 492
488 495 486 3 -2 6 -224 5 -494 l-1 -490 -49 -58 c-27 -32 -51 -60 -54 -63 -3
-3 -61 -70 -129 -150 -68 -80 -133 -156 -145 -170 -11 -14 -75 -88 -141 -165
-66 -77 -122 -142 -125 -145 -3 -3 -84 -97 -180 -210 l-175 -204 -1 -501 -1
-501 1001 -1 1001 0 -2 496 c0 273 -1 497 -2 499 -1 1 -224 -220 -496 -493
-272 -272 -496 -491 -498 -487 -2 4 -4 228 -3 497 l1 490 115 135 c63 74 127
149 141 165 15 17 100 116 189 220 90 105 175 204 189 220 14 17 67 77 116
135 111 130 120 140 189 220 31 36 56 69 57 75 1 5 2 232 2 503 l2 492 -997 0
c-549 0 -999 -3 -1000 -7z"/>
</g>
</svg>
